<svg id="svg" version="1.1" xmlns="http://www.w3.org/2000/svg" xmlns:xlink="http://www.w3.org/1999/xlink" width="400" height="400" viewBox="0, 0, 400,400"><g id="svgg"><path id="path0" d="M139.778 25.314 C 139.669 25.597,139.630 28.972,139.690 32.814 L 139.800 39.800 197.700 39.901 L 255.600 40.003 255.600 32.401 L 255.600 24.800 197.787 24.800 C 151.063 24.800,139.937 24.899,139.778 25.314 M104.400 47.157 C 104.400 53.679,104.487 54.748,105.033 54.957 C 105.881 55.283,131.312 55.269,135.939 54.940 L 139.600 54.680 139.600 49.540 L 139.600 44.400 137.600 44.400 L 135.600 44.400 135.600 42.774 C 135.600 39.378,136.722 39.600,119.586 39.600 L 104.400 39.600 104.400 47.157 M257.808 39.898 C 255.247 40.095,255.400 39.588,255.400 47.863 L 255.400 55.000 258.400 55.323 C 263.302 55.851,288.789 55.431,290.100 54.801 L 291.200 54.272 291.200 47.159 C 291.200 43.248,291.065 39.963,290.900 39.861 C 290.735 39.758,290.600 40.772,290.600 42.113 L 290.600 44.551 288.208 44.442 C 285.151 44.303,285.200 44.346,285.200 41.776 L 285.200 39.600 272.500 39.672 C 265.515 39.712,258.903 39.813,257.808 39.898 M90.089 60.071 C 89.540 60.620,89.444 65.280,89.860 71.139 L 90.120 74.800 97.220 74.800 L 104.321 74.800 104.591 70.300 C 104.740 67.825,104.802 64.450,104.731 62.800 L 104.600 59.800 97.589 59.691 C 92.473 59.612,90.446 59.714,90.089 60.071 M290.500 59.865 C 290.125 60.016,290.000 61.914,290.000 67.433 L 290.000 74.800 297.591 74.800 L 305.182 74.800 305.291 82.300 L 305.400 89.800 312.800 89.800 L 320.200 89.800 320.309 82.300 L 320.418 74.800 312.775 74.800 L 305.132 74.800 305.398 72.100 C 305.694 69.097,305.661 60.422,305.351 59.921 C 305.139 59.578,291.340 59.526,290.500 59.865 M74.891 82.288 L 75.000 89.800 79.400 89.916 C 86.255 90.098,85.637 90.869,85.509 82.290 L 85.400 75.000 80.091 74.888 L 74.782 74.777 74.891 82.288 M69.200 77.400 C 69.200 79.089,69.339 79.600,69.800 79.600 C 70.261 79.600,70.400 79.089,70.400 77.400 C 70.400 75.711,70.261 75.200,69.800 75.200 C 69.339 75.200,69.200 75.711,69.200 77.400 M54.400 97.157 C 54.400 106.124,53.504 105.200,62.200 105.200 C 70.923 105.200,70.031 106.122,69.982 97.153 L 69.941 89.600 62.170 89.600 L 54.400 89.600 54.400 97.157 M325.067 89.867 C 324.920 90.013,324.800 91.363,324.800 92.867 L 324.800 95.600 322.800 95.600 L 320.800 95.600 320.800 100.000 L 320.800 104.400 322.656 104.400 C 323.942 104.400,324.665 104.609,325.010 105.081 C 325.489 105.736,336.985 105.321,340.300 104.528 C 341.216 104.310,341.784 90.411,340.900 89.861 C 340.735 89.758,340.661 90.737,340.736 92.037 L 340.871 94.400 338.236 94.400 L 335.600 94.400 335.600 92.000 L 335.600 89.600 330.467 89.600 C 327.643 89.600,325.213 89.720,325.067 89.867 M40.300 110.032 C 39.654 110.409,39.600 111.556,39.600 125.012 L 39.600 139.585 40.500 139.807 C 40.995 139.929,44.370 139.977,48.000 139.914 L 54.600 139.800 54.705 124.960 L 54.810 110.120 51.143 109.860 C 45.863 109.485,41.109 109.561,40.300 110.032 M340.500 109.865 C 340.113 110.021,340.000 113.434,340.000 125.033 L 340.000 140.000 347.700 140.000 L 355.400 140.000 355.439 197.700 C 355.483 261.462,355.405 259.200,357.564 259.200 C 358.380 259.200,359.396 259.464,359.824 259.787 C 360.396 260.220,361.774 260.378,365.066 260.387 L 369.532 260.400 369.806 257.700 C 370.176 254.047,370.515 151.589,370.179 144.839 L 369.911 139.477 362.756 139.725 L 355.600 139.973 355.600 125.267 C 355.600 114.361,355.476 110.436,355.120 110.080 C 354.641 109.601,341.628 109.410,340.500 109.865 M24.800 142.600 L 24.800 145.600 22.000 145.600 L 19.200 145.600 19.200 147.800 L 19.200 150.000 22.000 150.000 L 24.800 150.000 24.800 200.000 L 24.800 250.000 22.000 250.000 L 19.200 250.000 19.200 252.157 C 19.200 254.648,19.394 254.800,22.590 254.800 C 25.050 254.800,25.200 254.998,25.200 258.233 L 25.200 260.400 29.800 260.400 L 34.400 260.400 34.400 258.386 C 34.400 255.391,35.207 254.400,37.646 254.400 L 39.600 254.400 39.600 252.200 L 39.600 250.000 37.600 250.000 L 35.600 250.000 35.600 200.000 L 35.600 150.000 37.600 150.000 L 39.600 150.000 39.600 147.800 L 39.600 145.600 37.643 145.600 C 35.424 145.600,35.200 145.325,35.200 142.600 C 35.200 139.540,35.308 139.600,29.757 139.600 L 24.800 139.600 24.800 142.600 M39.875 260.258 C 39.724 260.409,39.600 267.067,39.600 275.053 L 39.600 289.572 40.485 290.045 C 41.489 290.583,53.898 290.262,54.477 289.683 C 54.660 289.500,54.763 282.791,54.705 274.775 L 54.600 260.200 47.375 260.091 C 43.402 260.031,40.027 260.106,39.875 260.258 M340.000 274.957 C 340.000 288.227,340.071 289.942,340.633 290.157 C 341.878 290.635,354.614 290.426,355.120 289.920 C 355.476 289.564,355.600 285.636,355.600 274.720 L 355.600 260.000 347.800 260.000 L 340.000 260.000 340.000 274.957 M325.200 292.548 C 325.200 295.330,324.984 295.600,322.757 295.600 L 320.800 295.600 320.800 300.000 L 320.800 304.400 322.800 304.400 L 324.800 304.400 324.800 306.767 C 324.800 310.547,324.580 310.400,330.243 310.400 L 335.200 310.400 335.200 308.000 L 335.200 305.600 338.036 305.600 L 340.871 305.600 340.736 307.963 C 340.661 309.263,340.735 310.242,340.900 310.139 C 341.065 310.037,341.200 306.744,341.200 302.823 C 341.200 294.728,341.432 295.217,337.580 295.205 C 336.579 295.202,335.589 295.030,335.380 294.823 C 335.171 294.616,334.010 294.391,332.800 294.323 L 330.600 294.200 330.400 292.600 L 330.200 291.000 327.700 290.881 L 325.200 290.762 325.200 292.548 M55.036 295.142 C 54.627 295.803,54.258 309.200,54.648 309.200 C 54.853 309.200,54.952 308.480,54.869 307.600 L 54.716 306.000 56.958 306.000 L 59.200 306.000 59.200 308.200 L 59.200 310.400 64.360 310.400 L 69.519 310.400 69.791 305.500 C 69.941 302.805,70.004 299.340,69.931 297.800 L 69.800 295.000 62.529 294.891 C 58.521 294.831,55.158 294.944,55.036 295.142 M75.067 310.267 C 74.920 310.413,74.800 313.839,74.800 317.878 L 74.800 325.223 80.100 325.112 L 85.400 325.000 85.509 317.749 C 85.618 310.505,85.617 310.498,84.709 310.254 C 83.474 309.923,75.400 309.934,75.067 310.267 M305.475 310.258 C 305.324 310.409,305.200 313.833,305.200 317.867 L 305.200 325.200 297.591 325.200 L 289.982 325.200 290.091 332.700 L 290.200 340.200 297.400 340.299 C 301.360 340.353,304.810 340.262,305.067 340.096 C 305.627 339.734,305.841 331.929,305.401 327.900 L 305.107 325.200 312.762 325.200 L 320.418 325.200 320.309 317.700 L 320.200 310.200 312.975 310.091 C 309.002 310.031,305.627 310.106,305.475 310.258 M69.200 317.520 C 69.200 319.280,69.365 320.400,69.624 320.400 C 69.857 320.400,69.936 320.220,69.800 320.000 C 69.664 319.780,69.698 319.600,69.876 319.600 C 70.307 319.601,70.027 315.505,69.563 315.020 C 69.344 314.791,69.200 315.783,69.200 317.520 M89.860 328.861 C 89.418 335.087,89.533 339.446,90.153 339.961 C 90.533 340.277,92.868 340.385,97.653 340.310 L 104.600 340.200 104.731 337.200 C 104.802 335.550,104.740 332.175,104.591 329.700 L 104.321 325.200 97.220 325.200 L 90.120 325.200 89.860 328.861 M255.632 344.961 C 255.210 345.470,255.126 347.160,255.246 352.706 L 255.400 359.800 197.600 360.003 C 165.810 360.115,139.751 360.250,139.691 360.303 C 139.631 360.357,139.631 363.685,139.691 367.700 L 139.800 375.000 197.600 375.000 L 255.400 375.000 255.508 367.592 L 255.617 360.184 270.408 360.338 L 285.200 360.493 285.200 358.046 L 285.200 355.600 287.980 355.600 L 290.760 355.600 290.904 357.900 C 290.984 359.165,291.083 356.944,291.124 352.964 L 291.200 345.728 290.100 345.195 C 288.258 344.303,256.359 344.086,255.632 344.961 M104.900 345.065 C 104.525 345.216,104.400 347.155,104.400 352.838 L 104.400 360.410 119.700 360.305 L 135.000 360.200 135.107 358.600 C 135.326 355.312,135.408 355.200,137.608 355.200 L 139.600 355.200 139.600 350.260 L 139.600 345.320 135.939 345.060 C 131.708 344.760,105.646 344.764,104.900 345.065 " stroke="none" fill="#151410" fill-rule="evenodd"></path><path id="path1" d="M140.553 40.670 C 140.257 40.889,140.042 44.067,139.915 50.104 C 139.810 55.112,139.601 59.333,139.449 59.484 C 139.297 59.636,133.554 59.872,126.687 60.010 L 114.200 60.259 127.200 60.330 L 140.200 60.401 140.250 75.000 L 140.300 89.600 137.250 89.643 C 135.572 89.667,131.219 89.725,127.575 89.773 C 119.208 89.883,120.000 89.062,120.000 97.624 C 120.000 101.571,119.865 104.826,119.700 104.858 C 119.535 104.891,116.288 104.952,112.484 104.994 C 103.975 105.090,104.690 104.374,104.600 112.883 C 104.560 116.688,104.498 120.919,104.463 122.287 L 104.400 124.775 99.700 124.901 L 95.000 125.028 100.059 125.114 L 105.117 125.200 105.277 139.700 C 105.402 151.112,105.326 154.368,104.918 154.989 C 104.633 155.423,104.400 156.530,104.400 157.450 L 104.400 159.121 99.900 159.392 C 97.425 159.541,94.230 159.604,92.800 159.532 L 90.200 159.400 90.096 142.426 C 89.980 123.668,89.810 124.817,92.700 124.806 L 94.400 124.800 94.400 122.800 L 94.400 120.800 92.600 120.800 L 90.800 120.800 90.800 122.782 L 90.800 124.763 88.100 124.882 L 85.400 125.000 85.392 139.600 C 85.388 147.630,85.229 154.447,85.039 154.748 C 84.761 155.189,83.769 155.241,79.990 155.016 C 76.766 154.823,75.203 154.871,75.020 155.168 C 74.873 155.405,73.800 155.600,72.636 155.600 L 70.519 155.600 70.262 158.900 C 69.814 164.650,69.954 239.567,70.414 240.426 C 70.737 241.030,71.260 241.200,72.791 241.200 L 74.754 241.200 74.877 242.900 L 75.000 244.600 79.634 244.480 C 85.992 244.315,85.430 242.736,85.256 260.262 L 85.112 274.800 87.056 274.805 C 88.125 274.808,89.450 274.914,90.000 275.040 C 90.651 275.190,90.824 275.144,90.496 274.908 C 90.100 274.626,90.014 270.830,90.096 257.374 L 90.200 240.200 97.151 240.271 C 101.664 240.317,104.260 240.500,104.551 240.791 C 104.864 241.104,105.042 246.320,105.140 258.020 L 105.280 274.800 99.940 274.886 L 94.600 274.973 99.500 275.099 L 104.400 275.225 104.494 277.912 C 104.545 279.391,104.605 282.670,104.627 285.200 C 104.650 287.730,104.833 290.880,105.034 292.200 L 105.400 294.600 112.600 294.800 L 119.800 295.000 120.000 302.600 L 120.200 310.200 122.686 310.319 L 125.172 310.437 124.923 317.610 L 124.675 324.782 132.237 324.891 L 139.800 325.000 140.088 332.179 C 140.418 340.421,140.648 339.731,137.467 340.039 L 135.000 340.278 137.300 340.339 C 138.832 340.380,139.605 340.567,139.614 340.900 C 139.814 348.262,140.440 358.980,140.680 359.160 C 140.856 359.292,151.935 359.343,165.300 359.272 L 189.600 359.145 189.600 357.596 C 189.600 355.367,188.560 355.464,213.176 355.409 C 225.619 355.381,239.985 355.207,245.100 355.022 L 254.400 354.686 254.400 352.143 L 254.400 349.600 252.400 349.600 L 250.400 349.600 250.400 347.600 L 250.400 345.600 252.400 345.600 L 254.400 345.600 254.400 343.014 C 254.400 339.307,253.584 339.477,270.564 339.652 L 285.000 339.800 285.021 332.790 C 285.033 328.934,285.178 325.559,285.345 325.290 C 285.569 324.926,288.061 324.800,295.024 324.800 L 304.400 324.800 304.400 319.800 L 304.400 314.800 302.400 314.800 L 300.400 314.800 300.400 312.000 L 300.400 309.200 302.400 309.200 L 304.400 309.200 304.400 306.978 L 304.400 304.757 309.700 304.945 C 312.615 305.049,315.859 305.257,316.910 305.408 C 320.016 305.854,320.056 305.753,319.747 298.210 C 319.601 294.645,319.608 291.221,319.764 290.602 L 320.046 289.476 327.123 289.697 C 331.015 289.819,334.384 289.846,334.608 289.757 C 334.880 289.649,334.965 283.798,334.862 272.197 L 334.707 254.800 344.553 254.800 L 354.400 254.800 354.400 200.000 L 354.400 145.200 351.900 145.126 C 350.525 145.085,346.250 145.040,342.400 145.026 L 335.400 145.000 335.102 142.400 C 334.938 140.970,334.848 133.140,334.902 125.000 L 335.000 110.200 327.235 110.357 L 319.470 110.514 319.723 102.926 C 319.910 97.362,319.852 95.212,319.509 94.869 C 318.938 94.298,315.344 94.243,315.000 94.800 C 314.856 95.033,312.596 95.200,309.576 95.200 L 304.400 95.200 304.400 85.200 L 304.400 75.200 294.546 75.200 L 284.692 75.200 284.846 67.700 L 285.000 60.200 270.297 60.347 C 253.386 60.515,254.400 60.732,254.400 56.951 L 254.400 54.400 252.400 54.400 L 250.400 54.400 250.400 52.400 L 250.400 50.400 252.400 50.400 L 254.400 50.400 254.400 47.800 L 254.400 45.200 251.900 45.117 C 246.211 44.927,238.570 44.825,215.400 44.628 C 201.980 44.514,190.775 44.417,190.500 44.411 C 190.176 44.404,190.000 43.768,190.000 42.600 L 190.000 40.800 175.665 40.800 C 167.781 40.800,156.756 40.697,151.165 40.570 C 145.574 40.444,140.799 40.489,140.553 40.670 M144.800 42.743 L 144.800 44.287 149.680 44.572 C 152.364 44.729,154.872 45.025,155.254 45.229 C 155.649 45.440,163.191 45.600,172.774 45.600 L 189.600 45.600 189.600 47.553 L 189.600 49.507 186.900 49.756 C 185.415 49.893,177.781 49.988,169.936 49.968 L 155.671 49.932 155.443 52.466 C 155.317 53.860,155.105 56.125,154.971 57.500 L 154.729 60.000 147.564 60.000 L 140.400 60.000 140.403 53.300 C 140.404 49.615,140.520 45.385,140.661 43.900 L 140.916 41.200 142.858 41.200 L 144.800 41.200 144.800 42.743 M244.567 50.243 C 245.698 50.677,245.438 54.325,244.255 54.622 C 241.208 55.387,239.450 53.451,240.562 50.554 C 240.782 49.982,243.365 49.782,244.567 50.243 M105.375 60.441 C 105.225 60.683,105.213 62.618,105.348 64.741 C 105.483 66.863,105.455 70.071,105.285 71.869 C 105.115 73.667,105.116 75.052,105.288 74.946 C 105.460 74.840,105.602 73.998,105.605 73.076 C 105.615 70.083,105.899 69.600,107.647 69.600 L 109.200 69.600 109.200 67.800 L 109.200 66.000 107.643 66.000 C 105.815 66.000,105.600 65.641,105.600 62.586 L 105.600 60.438 108.100 60.296 L 110.600 60.154 108.124 60.077 C 106.670 60.032,105.535 60.182,105.375 60.441 M219.200 62.400 L 219.200 64.400 217.600 64.400 L 216.000 64.400 216.000 62.400 L 216.000 60.400 217.600 60.400 L 219.200 60.400 219.200 62.400 M219.348 65.700 C 219.481 66.195,219.592 67.185,219.595 67.900 L 219.600 69.200 217.200 69.200 L 214.800 69.200 214.800 67.267 C 214.800 64.886,214.884 64.800,217.220 64.800 C 218.838 64.800,219.141 64.928,219.348 65.700 M269.284 66.000 L 270.846 66.000 270.723 67.700 L 270.600 69.400 265.890 69.739 C 260.127 70.154,260.000 70.114,260.000 67.879 C 260.000 65.519,260.091 65.472,264.161 65.754 C 266.120 65.889,268.426 66.000,269.284 66.000 M239.800 82.400 L 239.800 89.800 254.979 89.905 C 266.512 89.985,270.234 90.129,270.473 90.505 C 270.646 90.777,270.791 94.169,270.794 98.041 L 270.800 105.083 273.860 105.341 C 275.544 105.484,278.874 105.600,281.260 105.600 L 285.600 105.600 285.600 107.400 L 285.600 109.200 287.557 109.200 C 290.068 109.200,290.000 108.967,290.000 117.624 L 290.000 124.782 297.500 124.891 L 305.000 125.000 305.200 140.200 L 305.400 155.400 312.700 155.509 L 320.000 155.618 320.000 157.329 C 320.000 159.520,320.517 160.000,322.880 160.000 L 324.800 160.000 324.800 200.000 L 324.800 240.000 322.624 240.000 C 321.427 240.000,320.336 240.180,320.200 240.400 C 320.050 240.643,317.129 240.800,312.776 240.800 C 308.829 240.800,305.573 240.845,305.539 240.900 C 305.506 240.955,305.371 248.650,305.239 258.000 L 305.000 275.000 297.500 275.109 L 290.000 275.218 289.994 282.509 C 289.986 291.764,290.765 290.926,282.135 290.966 L 275.000 291.000 274.878 292.900 L 274.756 294.800 272.778 294.800 L 270.800 294.800 270.753 299.700 C 270.728 302.395,270.593 305.770,270.453 307.200 L 270.200 309.800 255.000 310.000 L 239.800 310.200 239.884 317.443 L 239.968 324.687 237.084 324.878 C 235.498 324.982,217.640 325.006,197.400 324.930 C 177.160 324.855,159.385 324.794,157.900 324.796 L 155.200 324.800 155.200 317.404 L 155.200 310.008 195.100 309.848 C 217.045 309.761,236.011 309.564,237.246 309.411 L 239.493 309.132 239.682 299.964 C 239.786 294.922,239.992 290.675,240.140 290.527 C 240.288 290.379,247.112 290.245,255.304 290.229 L 270.200 290.200 270.309 282.747 L 270.417 275.295 274.985 275.009 C 277.498 274.852,279.760 274.852,280.012 275.008 C 280.265 275.164,282.508 275.164,284.997 275.009 L 289.522 274.726 289.661 257.748 C 289.780 243.196,289.886 240.716,290.400 240.391 C 290.730 240.183,294.106 240.009,297.902 240.006 L 304.804 240.000 304.702 199.700 L 304.600 159.400 297.600 159.400 L 290.600 159.400 290.249 157.400 C 290.055 156.300,289.824 148.622,289.735 140.338 L 289.573 125.275 285.399 124.991 C 283.104 124.834,280.589 124.826,279.812 124.971 C 279.035 125.117,276.603 125.113,274.408 124.962 L 270.417 124.687 270.308 117.043 L 270.200 109.400 255.333 109.400 C 247.157 109.400,240.333 109.266,240.169 109.102 C 240.005 108.938,239.785 104.663,239.681 99.602 L 239.491 90.400 237.046 90.386 C 210.108 90.228,155.378 90.462,155.105 90.735 C 154.891 90.949,154.934 93.729,155.210 97.574 C 155.627 103.364,155.608 104.128,155.038 104.758 C 154.651 105.186,154.400 106.178,154.400 107.285 L 154.400 109.107 151.820 109.271 C 150.401 109.361,143.741 109.360,137.020 109.268 L 124.800 109.101 124.800 104.751 L 124.800 100.400 122.800 100.400 L 120.800 100.400 120.800 97.800 L 120.800 95.200 122.800 95.200 L 124.800 95.200 124.800 93.233 C 124.800 92.151,124.892 91.026,125.004 90.733 C 125.171 90.299,127.986 90.227,140.204 90.343 L 155.200 90.486 155.200 82.862 L 155.200 75.238 157.700 75.119 C 159.075 75.054,178.110 75.000,200.000 75.000 L 239.800 75.000 239.800 82.400 M282.860 75.200 L 284.400 75.200 284.400 77.600 L 284.400 80.000 282.651 80.000 L 280.903 80.000 280.616 84.800 L 280.330 89.600 277.765 89.600 L 275.200 89.600 275.200 82.141 L 275.200 74.683 278.260 74.941 C 279.944 75.084,282.014 75.200,282.860 75.200 M86.500 90.287 C 87.105 90.378,88.095 90.378,88.700 90.287 C 89.305 90.195,88.810 90.120,87.600 90.120 C 86.390 90.120,85.895 90.195,86.500 90.287 M294.800 92.600 L 295.000 95.000 297.400 95.200 L 299.800 95.400 300.000 97.600 L 300.200 99.800 301.800 99.903 C 305.879 100.164,306.000 100.235,306.000 102.357 L 306.000 104.278 301.500 104.537 C 295.328 104.893,290.887 104.865,290.643 104.469 C 290.531 104.288,290.548 100.949,290.682 97.050 L 290.926 89.961 292.763 90.081 L 294.600 90.200 294.800 92.600 M70.657 105.107 C 70.553 105.276,71.217 105.357,72.134 105.286 C 74.825 105.079,75.153 104.896,72.924 104.846 C 71.782 104.821,70.762 104.938,70.657 105.107 M219.760 109.873 C 220.735 110.419,220.861 119.903,219.900 120.445 C 219.381 120.738,219.200 121.351,219.200 122.820 L 219.200 124.800 217.200 124.800 L 215.200 124.800 215.200 122.800 L 215.200 120.800 185.649 120.800 C 162.495 120.800,156.009 120.692,155.685 120.300 C 155.458 120.025,155.211 117.640,155.136 115.000 L 155.000 110.200 157.506 109.960 C 158.885 109.828,160.085 109.648,160.173 109.560 C 160.494 109.239,219.177 109.547,219.760 109.873 M120.732 112.400 C 120.805 113.830,120.742 117.188,120.594 119.863 C 120.269 125.713,121.070 125.245,111.926 124.917 L 105.182 124.674 105.291 117.437 L 105.400 110.200 107.800 109.962 C 109.120 109.831,112.540 109.741,115.400 109.762 L 120.600 109.800 120.732 112.400 M318.300 110.398 L 319.600 110.400 319.600 113.013 C 319.600 114.966,319.751 115.683,320.200 115.855 C 321.097 116.199,321.014 119.084,320.100 119.350 C 318.329 119.865,310.498 120.083,310.215 119.625 C 310.055 119.365,310.054 117.069,310.213 114.521 L 310.503 109.889 313.751 110.142 C 315.538 110.281,317.585 110.396,318.300 110.398 M150.918 125.064 L 154.836 125.323 154.718 127.562 L 154.600 129.800 152.548 129.919 L 150.497 130.038 150.148 135.119 L 149.800 140.200 145.300 140.544 L 140.800 140.887 140.800 142.620 C 140.800 143.573,140.647 144.447,140.460 144.563 C 140.274 144.678,140.020 148.032,139.897 152.016 C 139.774 156.000,139.585 159.348,139.477 159.457 C 139.369 159.565,136.067 159.776,132.140 159.927 L 125.000 160.200 125.000 200.000 L 125.000 239.800 132.182 239.910 C 140.768 240.041,139.974 239.263,140.041 247.600 C 140.070 251.230,140.207 255.370,140.347 256.800 L 140.600 259.400 142.600 259.607 C 145.381 259.895,145.600 260.115,145.600 262.624 L 145.600 264.800 147.753 264.800 C 150.176 264.800,150.384 265.077,150.395 268.300 L 150.400 270.000 152.600 270.000 L 154.800 270.000 154.800 272.351 L 154.800 274.701 140.300 274.854 C 132.325 274.938,124.675 274.944,123.300 274.868 L 120.800 274.729 120.794 257.864 C 120.791 248.589,120.656 240.793,120.494 240.539 C 120.290 240.219,118.126 240.087,113.400 240.108 C 109.660 240.124,106.240 240.019,105.800 239.874 C 104.891 239.574,104.496 160.971,105.400 160.306 C 105.620 160.144,106.734 160.009,107.876 160.006 C 109.018 160.003,110.069 159.812,110.211 159.582 C 110.374 159.318,112.259 159.208,115.335 159.282 L 120.200 159.400 120.460 157.200 C 120.604 155.990,120.739 148.304,120.760 140.120 L 120.800 125.240 123.100 125.096 C 127.402 124.826,146.984 124.803,150.918 125.064 M329.252 131.900 C 329.281 135.805,329.416 140.350,329.552 142.000 L 329.800 145.000 331.400 145.107 C 334.724 145.328,334.800 145.388,334.800 147.765 C 334.800 150.253,334.992 150.400,338.233 150.400 L 340.400 150.400 340.400 152.400 L 340.400 154.400 337.062 154.400 C 335.226 154.400,331.806 154.517,329.462 154.661 L 325.200 154.922 325.200 139.861 L 325.200 124.800 327.200 124.800 L 329.200 124.800 329.252 131.900 M344.302 200.100 L 344.200 241.000 342.600 241.000 L 341.000 241.000 340.898 200.100 L 340.796 159.200 342.600 159.200 L 344.404 159.200 344.302 200.100 M85.939 159.860 L 89.600 160.120 89.600 199.999 L 89.600 239.879 82.500 240.112 C 78.310 240.250,75.244 240.192,75.020 239.973 C 74.811 239.768,73.776 239.600,72.720 239.600 L 70.800 239.600 70.800 237.200 L 70.800 234.800 72.800 234.800 L 74.800 234.800 74.800 200.000 L 74.800 165.200 72.800 165.200 L 70.800 165.200 70.800 162.800 L 70.800 160.400 72.776 160.400 C 73.863 160.400,74.864 160.220,75.000 160.000 C 75.282 159.544,80.538 159.477,85.939 159.860 M336.500 245.462 L 340.400 245.721 340.400 247.618 C 340.400 249.824,340.147 250.000,336.967 250.000 L 334.800 250.000 334.800 252.400 L 334.800 254.800 332.443 254.800 C 329.453 254.800,329.600 254.314,329.600 264.171 C 329.600 268.629,329.483 273.925,329.340 275.939 L 329.080 279.600 327.140 279.600 L 325.200 279.600 325.200 262.400 L 325.200 245.200 328.900 245.202 C 330.935 245.203,334.355 245.320,336.500 245.462 M119.767 275.043 C 120.234 275.222,120.400 275.842,120.400 277.410 C 120.400 280.559,120.574 280.800,122.843 280.800 L 124.800 280.800 124.800 282.800 L 124.800 284.800 122.819 284.800 L 120.838 284.800 120.719 287.300 L 120.600 289.800 116.656 290.103 C 114.486 290.269,111.066 290.269,109.056 290.103 L 105.400 289.800 105.291 282.513 L 105.182 275.226 109.891 275.099 C 112.481 275.029,115.620 274.933,116.867 274.886 C 118.114 274.839,119.419 274.909,119.767 275.043 M220.309 282.500 C 220.369 286.625,220.279 290.008,220.109 290.018 C 217.473 290.175,159.811 290.175,157.800 290.018 L 155.000 289.800 155.020 287.200 C 155.031 285.770,155.184 282.487,155.359 279.904 L 155.678 275.209 172.739 275.098 C 182.123 275.036,196.640 274.990,205.000 274.993 L 220.200 275.000 220.309 282.500 M320.660 280.000 L 324.800 280.000 324.800 282.000 L 324.800 284.000 322.931 284.000 C 320.327 284.000,319.600 284.756,319.600 287.462 L 319.600 289.600 317.224 289.600 C 315.917 289.600,314.736 289.780,314.600 290.000 C 314.464 290.220,313.485 290.400,312.425 290.400 L 310.496 290.400 310.209 285.425 C 309.854 279.261,309.756 279.428,313.517 279.746 C 315.169 279.886,318.384 280.000,320.660 280.000 M153.023 290.400 C 154.312 290.400,154.329 290.424,154.585 292.700 C 155.071 297.005,155.233 303.792,154.916 306.600 L 154.600 309.400 140.000 309.619 C 123.802 309.862,124.815 310.044,124.806 306.900 L 124.800 304.800 122.800 304.800 L 120.800 304.800 120.800 302.200 L 120.800 299.600 122.800 299.600 L 124.800 299.600 124.800 295.007 L 124.800 290.413 135.300 290.275 C 141.075 290.199,147.132 290.196,148.760 290.268 C 150.389 290.341,152.307 290.400,153.023 290.400 M70.514 292.600 C 70.517 293.700,70.595 294.103,70.687 293.495 C 70.779 292.886,70.777 291.986,70.682 291.495 C 70.587 291.003,70.511 291.500,70.514 292.600 M301.738 295.461 L 306.000 295.722 305.997 297.561 C 305.993 299.716,305.059 300.400,302.120 300.400 L 300.400 300.400 300.400 302.543 L 300.400 304.686 295.997 304.965 C 293.575 305.118,291.439 305.147,291.249 305.030 C 290.829 304.771,290.230 296.198,290.591 295.615 C 290.884 295.141,295.473 295.077,301.738 295.461 M294.318 311.900 L 294.200 314.600 292.600 314.600 L 291.000 314.600 290.882 311.900 L 290.763 309.200 292.600 309.200 L 294.437 309.200 294.318 311.900 M86.500 309.887 C 87.105 309.978,88.095 309.978,88.700 309.887 C 89.305 309.795,88.810 309.720,87.600 309.720 C 86.390 309.720,85.895 309.795,86.500 309.887 M149.600 312.400 L 149.600 314.400 147.600 314.400 L 145.600 314.400 145.600 312.400 L 145.600 310.400 147.600 310.400 L 149.600 310.400 149.600 312.400 M105.006 325.209 C 105.187 325.503,105.350 328.905,105.368 332.771 L 105.400 339.800 107.600 339.830 L 109.800 339.860 107.700 339.710 L 105.600 339.560 105.600 337.413 C 105.600 334.360,105.815 334.000,107.643 334.000 C 109.193 334.000,109.200 333.993,109.200 332.400 C 109.200 330.809,109.192 330.800,107.650 330.800 C 105.939 330.800,105.600 330.134,105.600 326.774 C 105.600 325.934,105.392 325.119,105.138 324.962 C 104.830 324.771,104.786 324.854,105.006 325.209 M272.860 330.000 L 279.200 330.000 279.200 332.000 L 279.200 334.000 272.400 334.088 C 268.660 334.137,264.295 334.182,262.700 334.188 L 259.800 334.200 259.677 332.717 C 259.444 329.913,260.038 329.452,263.504 329.745 C 265.163 329.885,269.374 330.000,272.860 330.000 M219.200 335.200 L 219.200 339.600 217.600 339.600 L 216.000 339.600 216.000 337.424 C 216.000 336.227,215.820 335.136,215.600 335.000 C 215.380 334.864,215.200 333.863,215.200 332.776 L 215.200 330.800 217.200 330.800 L 219.200 330.800 219.200 335.200 M119.300 339.898 C 121.225 339.971,124.375 339.971,126.300 339.898 C 128.225 339.825,126.650 339.765,122.800 339.765 C 118.950 339.765,117.375 339.825,119.300 339.898 M154.935 340.900 C 155.057 341.395,155.282 343.645,155.436 345.900 L 155.714 350.000 169.357 350.002 C 176.861 350.004,184.485 350.120,186.300 350.262 L 189.600 350.519 189.600 352.451 L 189.600 354.383 172.500 354.541 C 163.095 354.627,152.172 354.903,148.227 355.154 C 139.576 355.705,140.414 356.546,140.406 347.300 L 140.400 340.000 147.557 340.000 C 154.646 340.000,154.715 340.008,154.935 340.900 M244.567 345.443 C 245.022 345.617,245.200 346.223,245.200 347.600 C 245.200 349.708,244.883 350.000,242.600 350.000 C 240.322 350.000,240.000 349.705,240.000 347.624 C 240.000 346.584,240.120 345.613,240.267 345.467 C 240.600 345.133,243.716 345.116,244.567 345.443 " stroke="none" fill="#e4c006" fill-rule="evenodd"></path><path id="path2" d="M134.243 19.833 C 134.109 20.181,134.030 22.566,134.067 25.133 C 134.124 29.045,134.177 29.412,134.400 27.400 L 134.666 25.000 134.788 27.200 C 134.914 29.473,134.914 29.653,134.800 33.000 C 134.762 34.100,134.747 36.035,134.766 37.300 L 134.800 39.600 137.200 39.600 L 139.600 39.600 139.600 32.200 C 139.600 26.096,139.699 24.800,140.164 24.800 C 140.571 24.800,140.767 24.141,140.864 22.437 C 140.939 21.137,140.864 20.159,140.697 20.262 C 140.531 20.366,140.286 20.169,140.154 19.825 C 139.805 18.914,134.593 18.921,134.243 19.833 M150.400 19.600 C 155.790 19.722,159.975 19.862,159.700 19.911 C 159.365 19.970,159.200 20.794,159.200 22.400 L 159.200 24.800 169.841 24.800 L 180.483 24.800 180.325 22.200 L 180.168 19.600 187.784 19.606 C 192.216 19.610,195.172 19.757,194.855 19.958 C 194.394 20.249,194.394 20.337,194.855 20.520 C 195.242 20.674,195.255 20.746,194.900 20.768 C 194.571 20.789,194.400 21.484,194.400 22.800 L 194.400 24.800 204.828 24.800 L 215.257 24.800 215.154 22.300 L 215.052 19.800 222.826 19.701 C 227.388 19.643,230.375 19.747,230.055 19.952 C 229.594 20.249,229.594 20.337,230.055 20.520 C 230.442 20.674,230.455 20.746,230.100 20.768 C 229.771 20.789,229.600 21.484,229.600 22.800 L 229.600 24.800 242.800 24.800 L 256.000 24.800 256.000 32.200 L 256.000 39.600 258.216 39.600 L 260.433 39.600 260.316 29.500 L 260.200 19.400 258.043 19.277 C 256.856 19.210,255.695 19.345,255.463 19.577 C 254.926 20.114,254.272 20.131,254.600 19.600 C 254.764 19.334,235.727 19.230,197.724 19.289 C 166.306 19.338,145.010 19.478,150.400 19.600 M253.500 20.687 C 252.895 20.778,251.905 20.778,251.300 20.687 C 250.695 20.595,251.190 20.520,252.400 20.520 C 253.610 20.520,254.105 20.595,253.500 20.687 M99.774 40.123 C 99.664 40.411,99.624 42.796,99.687 45.423 L 99.800 50.200 102.100 50.320 L 104.400 50.440 104.400 45.020 L 104.400 39.600 102.187 39.600 C 100.734 39.600,99.906 39.780,99.774 40.123 M84.248 56.988 L 84.335 59.400 86.968 59.518 L 89.600 59.637 89.600 56.995 L 89.600 54.354 86.881 54.465 L 84.162 54.577 84.248 56.988 M305.794 54.810 C 305.640 55.059,305.643 57.573,305.800 60.397 L 306.085 65.531 308.259 65.665 L 310.432 65.800 310.379 60.196 L 310.325 54.591 308.199 54.475 C 306.928 54.405,305.961 54.540,305.794 54.810 M69.471 69.550 C 69.408 69.687,69.305 70.925,69.241 72.300 L 69.126 74.800 76.963 74.800 L 84.800 74.800 84.800 72.449 C 84.800 70.908,84.605 69.936,84.233 69.627 C 83.635 69.131,69.697 69.058,69.471 69.550 M309.400 69.533 C 309.290 69.643,309.200 70.873,309.200 72.267 L 309.200 74.800 317.200 74.800 L 325.200 74.800 325.200 72.057 L 325.200 69.315 317.400 69.324 C 313.110 69.329,309.510 69.423,309.400 69.533 M89.909 82.700 L 89.800 90.200 82.400 90.400 L 75.000 90.600 74.891 97.879 L 74.782 105.159 72.691 105.279 L 70.600 105.400 70.479 107.268 C 70.308 109.927,70.192 109.967,62.371 110.090 L 55.400 110.200 55.551 124.697 C 55.668 135.892,55.588 139.332,55.202 139.797 C 54.793 140.290,53.481 140.400,47.984 140.400 C 44.289 140.400,40.981 140.509,40.633 140.643 C 39.971 140.897,39.622 248.606,40.259 256.140 L 40.517 259.200 47.645 259.200 C 56.672 259.200,55.739 257.291,55.550 275.368 L 55.400 289.800 62.782 289.909 C 71.012 290.031,70.784 289.946,70.794 292.900 L 70.800 294.800 72.791 294.800 L 74.782 294.800 74.891 302.100 L 75.000 309.400 82.400 309.600 L 89.800 309.800 89.909 317.300 L 90.018 324.800 97.618 324.800 L 105.218 324.800 105.109 317.500 L 105.000 310.200 97.558 310.091 L 90.117 309.983 89.849 305.842 C 89.702 303.564,89.698 300.703,89.842 299.485 C 90.327 295.351,89.905 294.400,87.582 294.400 L 85.600 294.400 85.594 292.900 C 85.583 290.298,85.464 290.248,80.037 290.565 C 75.845 290.810,75.161 290.765,74.954 290.224 C 74.782 289.776,74.162 289.600,72.757 289.600 L 70.800 289.600 70.800 275.014 C 70.800 257.783,71.847 259.782,62.674 259.493 C 58.974 259.376,55.824 259.158,55.674 259.007 C 55.223 258.557,55.121 141.119,55.570 140.670 C 55.794 140.446,58.954 140.254,62.882 140.226 C 66.687 140.198,70.025 140.035,70.300 139.864 C 70.685 139.624,70.800 136.205,70.800 124.976 L 70.800 110.400 72.757 110.400 C 74.951 110.400,75.200 110.112,75.200 107.567 L 75.200 106.000 77.200 106.000 L 79.200 106.000 79.200 107.575 C 79.200 110.745,85.074 110.453,85.279 107.273 L 85.400 105.400 87.500 105.279 C 88.655 105.213,89.627 105.033,89.659 104.879 C 89.691 104.726,89.747 101.533,89.783 97.784 C 89.866 89.140,89.099 89.917,97.218 90.247 C 105.925 90.600,105.200 91.318,105.200 82.351 L 105.200 75.200 97.609 75.200 L 90.018 75.200 89.909 82.700 M50.000 102.200 L 50.000 104.400 52.200 104.400 L 54.400 104.400 54.400 102.200 L 54.400 100.000 52.200 100.000 L 50.000 100.000 50.000 102.200 M34.108 107.300 L 34.074 110.200 36.837 110.067 L 39.600 109.934 39.600 107.167 L 39.600 104.400 36.871 104.400 L 34.142 104.400 34.108 107.300 M355.872 116.900 C 355.959 123.775,356.024 131.695,356.015 134.500 L 356.000 139.600 358.200 139.600 L 360.400 139.600 360.400 122.000 L 360.400 104.400 358.057 104.400 L 355.713 104.400 355.872 116.900 M34.520 117.600 C 34.520 118.810,34.595 119.305,34.687 118.700 C 34.778 118.095,34.778 117.105,34.687 116.500 C 34.595 115.895,34.520 116.390,34.520 117.600 M370.800 258.000 L 370.800 260.400 373.000 260.400 L 375.200 260.400 375.200 258.000 L 375.200 255.600 373.000 255.600 L 370.800 255.600 370.800 258.000 M33.999 262.700 L 33.998 265.000 36.799 264.867 L 39.600 264.734 39.600 262.567 L 39.600 260.400 36.800 260.400 L 34.000 260.400 33.999 262.700 M355.998 273.500 C 355.997 280.705,355.880 288.625,355.737 291.100 L 355.478 295.600 357.939 295.600 L 360.400 295.600 360.400 278.000 L 360.400 260.400 358.200 260.400 L 356.000 260.400 355.998 273.500 M34.600 290.231 C 34.380 290.324,34.225 291.525,34.256 292.900 L 34.312 295.400 37.156 295.518 L 40.000 295.635 40.000 293.450 C 40.000 290.157,39.870 289.995,37.257 290.032 C 36.016 290.049,34.820 290.139,34.600 290.231 M49.688 300.500 L 49.800 305.800 52.100 305.920 L 54.400 306.040 54.400 300.620 L 54.400 295.200 51.988 295.200 L 49.577 295.200 49.688 300.500 M69.268 327.900 L 69.400 330.600 75.000 330.690 C 78.080 330.740,81.365 330.785,82.300 330.790 L 84.000 330.800 84.059 332.700 L 84.118 334.600 84.415 332.200 C 84.579 330.880,84.733 328.765,84.757 327.500 L 84.800 325.200 76.968 325.200 L 69.136 325.200 69.268 327.900 M306.000 331.138 C 306.000 334.404,305.883 338.994,305.739 341.338 L 305.478 345.600 307.946 345.600 L 310.413 345.600 310.380 338.359 C 310.362 334.377,310.404 331.067,310.474 331.003 C 310.543 330.938,313.858 330.822,317.840 330.743 L 325.080 330.600 325.161 327.900 L 325.242 325.200 315.621 325.200 L 306.000 325.200 306.000 331.138 M318.300 330.287 C 317.695 330.378,316.705 330.378,316.100 330.287 C 315.495 330.195,315.990 330.120,317.200 330.120 C 318.410 330.120,318.905 330.195,318.300 330.287 M85.309 332.400 C 85.309 333.390,85.387 333.795,85.482 333.300 C 85.578 332.805,85.578 331.995,85.482 331.500 C 85.387 331.005,85.309 331.410,85.309 332.400 M84.667 340.581 C 82.469 342.247,84.275 345.600,87.371 345.600 L 89.600 345.600 89.600 342.800 L 89.600 340.000 87.500 340.013 C 86.345 340.020,85.070 340.275,84.667 340.581 M99.867 349.867 C 99.533 350.200,99.512 358.906,99.843 359.767 C 100.023 360.236,100.645 360.400,102.243 360.400 L 104.400 360.400 104.400 355.000 L 104.400 349.600 102.267 349.600 C 101.093 349.600,100.013 349.720,99.867 349.867 M134.476 364.900 C 134.517 367.375,134.615 368.410,134.692 367.200 L 134.832 365.000 137.216 365.136 L 139.600 365.271 139.600 362.836 L 139.600 360.400 137.000 360.400 L 134.400 360.400 134.476 364.900 M255.909 367.700 L 255.800 375.000 195.300 375.000 L 134.800 375.000 134.733 377.400 L 134.666 379.800 134.400 377.400 L 134.134 375.000 134.067 377.224 C 134.022 378.734,134.202 379.696,134.630 380.224 C 134.976 380.651,135.121 380.730,134.953 380.400 C 134.701 379.906,134.754 379.887,135.255 380.293 C 135.910 380.822,252.281 380.977,257.600 380.455 L 260.200 380.200 260.307 370.300 L 260.414 360.400 258.216 360.400 L 256.018 360.400 255.909 367.700 " stroke="none" fill="#ebe8d4" fill-rule="evenodd"></path><path id="path3" d="M140.095 19.636 C 140.208 19.946,140.458 20.170,140.650 20.132 C 140.843 20.095,140.939 21.130,140.864 22.432 L 140.729 24.800 149.964 24.800 L 159.200 24.800 159.200 22.433 C 159.200 20.914,159.379 19.994,159.700 19.865 C 159.975 19.754,155.940 19.649,150.733 19.632 C 145.526 19.614,140.956 19.481,140.578 19.336 C 140.092 19.150,139.951 19.237,140.095 19.636 M180.205 20.300 C 180.278 20.685,180.353 21.855,180.369 22.900 L 180.400 24.800 187.400 24.800 L 194.400 24.800 194.400 22.800 C 194.400 21.470,194.567 20.798,194.900 20.794 C 195.266 20.789,195.254 20.695,194.855 20.442 C 194.394 20.151,194.394 20.063,194.855 19.880 C 195.155 19.761,191.951 19.649,187.735 19.632 C 180.642 19.602,180.081 19.652,180.205 20.300 M215.167 19.765 C 215.075 19.856,215.061 21.026,215.136 22.365 L 215.271 24.800 222.436 24.800 L 229.600 24.800 229.600 22.800 C 229.600 21.470,229.767 20.798,230.100 20.794 C 230.466 20.789,230.454 20.695,230.055 20.442 C 229.594 20.151,229.594 20.063,230.055 19.880 C 230.355 19.761,227.165 19.649,222.967 19.632 C 218.768 19.614,215.258 19.674,215.167 19.765 M251.300 20.687 C 251.905 20.778,252.895 20.778,253.500 20.687 C 254.105 20.595,253.610 20.520,252.400 20.520 C 251.190 20.520,250.695 20.595,251.300 20.687 M255.691 32.316 L 255.600 40.032 195.433 39.916 C 162.341 39.852,135.154 39.688,135.017 39.550 C 134.810 39.344,134.713 33.203,134.868 30.200 C 134.891 29.760,134.858 28.410,134.794 27.200 L 134.678 25.000 134.386 27.600 C 133.737 33.370,133.930 39.130,134.800 40.000 C 135.363 40.563,135.600 41.333,135.600 42.600 L 135.600 44.400 137.600 44.400 L 139.600 44.400 139.600 49.560 L 139.600 54.719 134.700 54.987 C 130.024 55.242,113.846 55.070,97.300 54.590 L 89.600 54.367 89.600 56.983 L 89.600 59.600 87.078 59.600 L 84.556 59.600 84.457 57.912 C 84.238 54.210,84.052 56.271,84.021 62.733 C 84.001 66.945,84.143 69.641,84.394 69.796 C 84.617 69.934,84.800 71.106,84.800 72.400 C 84.800 73.694,84.980 74.864,85.200 75.000 C 85.443 75.150,85.600 78.068,85.600 82.416 C 85.600 90.847,86.220 90.097,79.400 89.916 L 75.000 89.800 74.891 82.300 L 74.782 74.800 71.891 74.846 C 70.301 74.872,69.315 74.975,69.700 75.076 C 70.651 75.324,70.746 79.600,69.800 79.600 C 69.299 79.600,69.200 80.422,69.200 84.600 C 69.200 87.399,69.363 89.600,69.570 89.600 C 69.783 89.600,69.958 92.832,69.982 97.189 L 70.024 104.779 69.107 105.009 C 68.603 105.135,65.132 105.139,61.395 105.016 C 57.658 104.894,51.225 104.698,47.100 104.580 L 39.600 104.367 39.600 107.216 L 39.600 110.066 36.817 109.933 L 34.035 109.800 34.009 124.520 C 33.986 137.189,34.067 139.324,34.591 139.848 C 34.969 140.226,35.200 141.193,35.200 142.396 C 35.200 145.343,35.396 145.600,37.643 145.600 L 39.600 145.600 39.600 147.800 L 39.600 150.000 37.600 150.000 L 35.600 150.000 35.600 200.000 L 35.600 250.000 37.600 250.000 L 39.600 250.000 39.600 252.200 L 39.600 254.400 37.646 254.400 C 35.216 254.400,34.400 255.394,34.400 258.353 L 34.400 260.334 44.500 260.267 L 54.600 260.200 54.705 274.775 C 54.763 282.791,54.660 289.500,54.477 289.683 C 53.898 290.262,41.489 290.583,40.485 290.045 C 39.601 289.572,39.600 289.558,39.600 277.168 L 39.600 264.763 36.900 264.882 L 34.200 265.000 34.094 277.619 L 33.989 290.239 36.640 290.070 C 39.803 289.868,39.985 290.047,39.994 293.363 L 40.000 295.726 47.200 295.465 L 54.400 295.205 54.471 297.902 L 54.541 300.600 54.771 297.800 L 55.000 295.000 62.400 295.000 L 69.800 295.000 69.936 298.200 C 70.011 299.960,69.854 304.325,69.587 307.900 C 69.256 312.330,69.231 314.559,69.510 314.900 C 70.009 315.511,70.328 319.601,69.876 319.600 C 69.698 319.600,69.664 319.780,69.800 320.000 C 69.936 320.220,69.857 320.400,69.624 320.400 C 69.373 320.400,69.200 321.378,69.200 322.800 L 69.200 325.200 71.991 325.200 L 74.782 325.200 74.891 317.700 L 75.000 310.200 79.000 310.079 C 81.200 310.013,83.585 310.066,84.300 310.197 L 85.600 310.436 85.600 317.424 C 85.600 321.267,85.436 324.723,85.237 325.105 C 84.860 325.826,83.982 335.568,83.993 338.900 C 84.000 340.677,84.431 341.320,85.000 340.400 C 85.136 340.180,86.227 340.000,87.424 340.000 L 89.600 340.000 89.600 342.817 L 89.600 345.633 97.300 345.410 C 113.846 344.930,130.024 344.758,134.700 345.013 L 139.600 345.281 139.600 350.240 L 139.600 355.200 137.608 355.200 C 135.412 355.200,135.364 355.266,135.116 358.600 L 134.998 360.200 194.799 360.092 C 227.690 360.033,254.816 359.907,255.079 359.813 C 255.439 359.684,255.498 357.899,255.317 352.636 C 255.132 347.252,255.195 345.488,255.587 345.015 C 256.201 344.276,280.893 344.163,286.800 344.872 C 288.670 345.096,293.643 345.359,297.851 345.456 L 305.502 345.632 305.793 340.192 C 305.953 337.199,305.976 334.642,305.842 334.509 C 305.709 334.376,305.600 335.553,305.600 337.126 C 305.600 340.645,306.081 340.466,297.000 340.314 L 290.200 340.200 290.091 332.700 L 289.982 325.200 297.591 325.200 L 305.200 325.200 305.228 327.300 C 305.274 330.749,305.939 331.464,305.972 328.100 C 305.989 326.373,305.835 325.200,305.591 325.200 C 305.323 325.200,305.220 322.612,305.291 317.700 L 305.400 310.200 312.800 310.200 L 320.200 310.200 320.309 317.700 L 320.418 325.200 322.809 325.200 L 325.200 325.200 325.198 318.700 C 325.197 315.125,325.080 310.445,324.938 308.300 L 324.679 304.400 322.740 304.400 L 320.800 304.400 320.800 300.000 L 320.800 295.600 322.757 295.600 C 324.984 295.600,325.200 295.330,325.200 292.548 L 325.200 290.762 327.700 290.881 L 330.200 291.000 330.400 292.600 L 330.600 294.200 332.788 294.324 C 333.991 294.392,335.213 294.644,335.502 294.885 C 335.835 295.161,339.593 295.392,345.750 295.515 L 355.472 295.709 355.734 291.154 C 355.878 288.649,355.997 280.705,355.998 273.500 L 356.000 260.400 358.300 260.387 C 360.409 260.376,360.536 260.326,359.824 259.787 C 359.396 259.464,358.380 259.200,357.564 259.200 C 356.102 259.200,356.076 259.172,355.787 257.300 C 355.412 254.866,355.069 150.484,355.417 144.500 L 355.679 140.000 357.939 139.926 L 360.200 139.852 358.112 139.706 L 356.024 139.559 355.899 134.480 L 355.774 129.400 355.687 134.700 L 355.600 140.000 347.800 140.000 L 340.000 140.000 340.000 125.043 C 340.000 111.773,340.071 110.058,340.633 109.843 C 341.878 109.365,354.614 109.574,355.120 110.080 C 355.461 110.421,355.626 113.292,355.689 119.980 C 355.767 128.181,355.796 128.572,355.916 123.000 C 355.992 119.480,355.932 113.838,355.783 110.461 L 355.512 104.323 346.856 104.505 C 342.095 104.606,335.345 104.931,331.856 105.228 C 325.962 105.730,325.477 105.719,325.012 105.084 C 324.664 104.609,323.945 104.400,322.656 104.400 L 320.800 104.400 320.800 100.000 L 320.800 95.600 322.739 95.600 L 324.678 95.600 324.939 91.338 C 325.083 88.994,325.200 84.314,325.200 80.938 L 325.200 74.800 322.809 74.800 L 320.418 74.800 320.309 82.300 L 320.200 89.800 312.800 89.800 L 305.400 89.800 305.291 82.300 L 305.182 74.800 307.158 74.800 L 309.134 74.800 309.267 71.999 L 309.400 69.198 307.543 69.199 C 305.380 69.200,305.200 69.465,305.200 72.633 L 305.200 74.800 297.600 74.800 L 290.000 74.800 290.000 67.408 C 290.000 58.603,288.978 59.513,298.675 59.681 L 305.543 59.800 305.672 57.084 L 305.800 54.367 298.000 54.541 C 293.710 54.636,288.760 54.900,287.000 55.128 C 283.529 55.578,261.704 55.674,257.800 55.257 L 255.400 55.000 255.388 48.000 C 255.372 39.486,255.218 40.016,257.743 39.928 L 259.800 39.856 257.909 39.706 L 256.017 39.557 255.899 32.078 L 255.781 24.600 255.691 32.316 M285.200 41.758 C 285.200 44.348,285.149 44.303,288.208 44.444 L 290.600 44.555 290.600 42.178 L 290.600 39.800 287.900 39.682 L 285.200 39.563 285.200 41.758 M175.665 40.800 L 190.000 40.800 190.000 42.600 C 190.000 43.768,190.176 44.404,190.500 44.411 C 190.775 44.417,201.980 44.514,215.400 44.628 C 238.570 44.825,246.211 44.927,251.900 45.117 L 254.400 45.200 254.400 47.800 L 254.400 50.400 252.400 50.400 L 250.400 50.400 250.400 52.400 L 250.400 54.400 252.400 54.400 L 254.400 54.400 254.400 56.951 C 254.400 60.732,253.386 60.515,270.297 60.347 L 285.000 60.200 284.846 67.700 L 284.692 75.200 294.546 75.200 L 304.400 75.200 304.400 85.200 L 304.400 95.200 309.576 95.200 C 312.596 95.200,314.856 95.033,315.000 94.800 C 315.344 94.243,318.938 94.298,319.509 94.869 C 319.852 95.212,319.910 97.362,319.723 102.926 L 319.470 110.514 327.235 110.357 L 335.000 110.200 334.902 125.000 C 334.848 133.140,334.938 140.970,335.102 142.400 L 335.400 145.000 342.400 145.026 C 346.250 145.040,350.525 145.085,351.900 145.126 L 354.400 145.200 354.400 200.000 L 354.400 254.800 344.553 254.800 L 334.707 254.800 334.862 272.197 C 334.965 283.798,334.880 289.649,334.608 289.757 C 334.384 289.846,331.015 289.819,327.123 289.697 L 320.046 289.476 319.764 290.602 C 319.608 291.221,319.601 294.645,319.747 298.210 C 320.056 305.753,320.016 305.854,316.910 305.408 C 315.859 305.257,312.615 305.049,309.700 304.945 L 304.400 304.757 304.400 306.978 L 304.400 309.200 302.400 309.200 L 300.400 309.200 300.400 312.000 L 300.400 314.800 302.400 314.800 L 304.400 314.800 304.400 319.800 L 304.400 324.800 295.024 324.800 C 288.061 324.800,285.569 324.926,285.345 325.290 C 285.178 325.559,285.033 328.934,285.021 332.790 L 285.000 339.800 270.564 339.652 C 253.584 339.477,254.400 339.307,254.400 343.014 L 254.400 345.600 252.400 345.600 L 250.400 345.600 250.400 347.600 L 250.400 349.600 252.400 349.600 L 254.400 349.600 254.400 352.143 L 254.400 354.686 245.100 355.022 C 239.985 355.207,225.619 355.381,213.176 355.409 C 188.560 355.464,189.600 355.367,189.600 357.596 L 189.600 359.145 165.300 359.272 C 151.935 359.343,140.857 359.293,140.682 359.162 C 140.507 359.031,140.196 354.820,139.992 349.805 C 139.787 344.790,139.510 340.577,139.377 340.443 C 139.243 340.309,131.544 340.110,122.267 340.000 L 105.400 339.800 105.368 332.771 C 105.327 323.941,106.188 324.800,97.376 324.800 L 90.000 324.800 90.000 317.400 L 90.000 310.000 88.500 309.948 C 87.675 309.920,84.300 309.785,81.000 309.648 L 75.000 309.400 74.891 302.121 L 74.782 294.841 72.691 294.721 L 70.600 294.600 70.400 292.400 L 70.200 290.200 62.800 290.000 L 55.400 289.800 55.550 275.375 C 55.738 257.309,56.672 259.200,47.562 259.200 L 40.517 259.200 40.259 256.140 C 39.622 248.606,39.971 140.897,40.633 140.643 C 40.981 140.509,44.289 140.400,47.984 140.400 C 53.481 140.400,54.793 140.290,55.202 139.797 C 55.588 139.332,55.668 135.892,55.551 124.697 L 55.400 110.200 62.371 110.090 C 70.270 109.966,70.313 109.950,70.480 107.067 L 70.600 105.000 72.691 104.879 L 74.782 104.759 74.891 97.679 L 75.000 90.600 81.000 90.352 C 84.300 90.215,87.675 90.080,88.500 90.052 L 90.000 90.000 90.000 82.600 L 90.000 75.200 97.376 75.200 C 106.188 75.200,105.327 76.059,105.368 67.229 L 105.400 60.200 122.267 60.000 C 131.544 59.890,139.267 59.667,139.429 59.504 C 139.592 59.342,139.810 55.112,139.915 50.104 C 140.042 44.067,140.257 40.889,140.553 40.670 C 140.799 40.489,145.574 40.444,151.165 40.570 C 156.756 40.697,167.781 40.800,175.665 40.800 M240.562 50.554 C 239.450 53.451,241.208 55.387,244.255 54.622 C 245.438 54.325,245.698 50.677,244.567 50.243 C 243.365 49.782,240.782 49.982,240.562 50.554 M104.731 62.800 C 104.802 64.450,104.740 67.825,104.591 70.300 L 104.321 74.800 97.220 74.800 L 90.120 74.800 89.860 71.139 C 89.444 65.280,89.540 60.620,90.089 60.071 C 90.446 59.714,92.473 59.612,97.589 59.691 L 104.600 59.800 104.731 62.800 M305.728 62.800 C 305.728 64.230,305.801 64.815,305.889 64.100 C 305.978 63.385,305.978 62.215,305.889 61.500 C 305.801 60.785,305.728 61.370,305.728 62.800 M260.300 65.820 C 259.733 66.411,259.964 69.611,260.590 69.852 C 260.915 69.976,263.300 69.926,265.890 69.739 L 270.600 69.400 270.723 67.700 L 270.846 66.000 269.284 66.000 C 268.426 66.000,266.120 65.889,264.161 65.754 C 262.203 65.618,260.465 65.648,260.300 65.820 M306.900 65.887 C 307.505 65.978,308.495 65.978,309.100 65.887 C 309.705 65.795,309.210 65.720,308.000 65.720 C 306.790 65.720,306.295 65.795,306.900 65.887 M315.900 69.489 C 316.615 69.578,317.785 69.578,318.500 69.489 C 319.215 69.401,318.630 69.328,317.200 69.328 C 315.770 69.328,315.185 69.401,315.900 69.489 M157.700 75.119 L 155.200 75.238 155.200 82.862 L 155.200 90.486 140.204 90.343 C 127.986 90.227,125.171 90.299,125.004 90.733 C 124.892 91.026,124.800 92.151,124.800 93.233 L 124.800 95.200 122.800 95.200 L 120.800 95.200 120.800 97.800 L 120.800 100.400 122.800 100.400 L 124.800 100.400 124.800 104.751 L 124.800 109.101 137.020 109.268 C 143.741 109.360,150.401 109.361,151.820 109.271 L 154.400 109.107 154.400 107.285 C 154.400 106.178,154.651 105.186,155.038 104.758 C 155.608 104.128,155.627 103.364,155.210 97.574 C 154.934 93.729,154.891 90.949,155.105 90.735 C 155.378 90.462,210.108 90.228,237.046 90.386 L 239.491 90.400 239.681 99.602 C 239.785 104.663,240.005 108.938,240.169 109.102 C 240.333 109.266,247.157 109.400,255.333 109.400 L 270.200 109.400 270.308 117.043 L 270.417 124.687 274.408 124.962 C 276.603 125.113,279.035 125.117,279.812 124.971 C 280.589 124.826,283.104 124.834,285.399 124.991 L 289.573 125.275 289.735 140.338 C 289.824 148.622,290.055 156.300,290.249 157.400 L 290.600 159.400 297.600 159.400 L 304.600 159.400 304.702 199.700 L 304.804 240.000 297.902 240.006 C 294.106 240.009,290.730 240.183,290.400 240.391 C 289.886 240.716,289.780 243.196,289.661 257.748 L 289.522 274.726 284.997 275.009 C 282.508 275.164,280.265 275.164,280.012 275.008 C 279.760 274.852,277.498 274.852,274.985 275.009 L 270.417 275.295 270.309 282.747 L 270.200 290.200 255.304 290.229 C 247.112 290.245,240.288 290.379,240.140 290.527 C 239.992 290.675,239.786 294.922,239.682 299.964 L 239.493 309.132 237.246 309.411 C 236.011 309.564,217.045 309.761,195.100 309.848 L 155.200 310.008 155.200 317.404 L 155.200 324.800 157.900 324.796 C 159.385 324.794,177.160 324.855,197.400 324.930 C 217.640 325.006,235.498 324.982,237.084 324.878 L 239.968 324.687 239.884 317.443 L 239.800 310.200 255.000 310.000 L 270.200 309.800 270.453 307.200 C 270.593 305.770,270.728 302.395,270.753 299.700 L 270.800 294.800 272.778 294.800 L 274.756 294.800 274.878 292.900 L 275.000 291.000 282.135 290.966 C 290.765 290.926,289.986 291.764,289.994 282.509 L 290.000 275.218 297.500 275.109 L 305.000 275.000 305.239 258.000 C 305.371 248.650,305.506 240.955,305.539 240.900 C 305.573 240.845,308.829 240.800,312.776 240.800 C 317.129 240.800,320.050 240.643,320.200 240.400 C 320.336 240.180,321.427 240.000,322.624 240.000 L 324.800 240.000 324.800 200.000 L 324.800 160.000 322.880 160.000 C 320.517 160.000,320.000 159.520,320.000 157.329 L 320.000 155.618 312.700 155.509 L 305.400 155.400 305.200 140.200 L 305.000 125.000 297.500 124.891 L 290.000 124.782 290.000 117.624 C 290.000 108.967,290.068 109.200,287.557 109.200 L 285.600 109.200 285.600 107.400 L 285.600 105.600 281.260 105.600 C 278.874 105.600,275.544 105.484,273.860 105.341 L 270.800 105.083 270.794 98.041 C 270.791 94.169,270.646 90.777,270.473 90.505 C 270.234 90.129,266.512 89.985,254.979 89.905 L 239.800 89.800 239.800 82.400 L 239.800 75.000 200.000 75.000 C 178.110 75.000,159.075 75.054,157.700 75.119 M275.200 82.141 L 275.200 89.600 277.765 89.600 L 280.330 89.600 280.616 84.800 L 280.903 80.000 282.651 80.000 L 284.400 80.000 284.400 77.600 L 284.400 75.200 282.860 75.200 C 282.014 75.200,279.944 75.084,278.260 74.941 L 275.200 74.683 275.200 82.141 M335.600 91.981 L 335.600 94.400 338.220 94.400 L 340.840 94.400 340.720 92.100 L 340.600 89.800 338.100 89.681 L 335.600 89.562 335.600 91.981 M290.682 97.050 C 290.548 100.949,290.531 104.288,290.643 104.469 C 290.887 104.865,295.328 104.893,301.500 104.537 L 306.000 104.278 306.000 102.357 C 306.000 100.235,305.879 100.164,301.800 99.903 L 300.200 99.800 300.000 97.600 L 299.800 95.400 297.400 95.200 L 295.000 95.000 294.800 92.600 L 294.600 90.200 292.763 90.081 L 290.926 89.961 290.682 97.050 M51.143 109.860 L 54.810 110.120 54.705 124.960 L 54.600 139.800 48.000 139.914 C 44.370 139.977,40.995 139.929,40.500 139.807 L 39.600 139.585 39.600 125.012 C 39.600 111.556,39.654 110.409,40.300 110.032 C 41.109 109.561,45.863 109.485,51.143 109.860 M107.800 109.962 L 105.400 110.200 105.291 117.437 L 105.182 124.674 111.926 124.917 C 121.070 125.245,120.269 125.713,120.594 119.863 C 120.742 117.188,120.805 113.830,120.732 112.400 L 120.600 109.800 115.400 109.762 C 112.540 109.741,109.120 109.831,107.800 109.962 M310.213 114.521 C 310.054 117.069,310.055 119.365,310.215 119.625 C 310.498 120.083,318.329 119.865,320.100 119.350 C 321.014 119.084,321.097 116.199,320.200 115.855 C 319.751 115.683,319.600 114.966,319.600 113.013 L 319.600 110.400 318.300 110.398 C 317.585 110.396,315.538 110.281,313.751 110.142 L 310.503 109.889 310.213 114.521 M34.687 118.700 C 34.595 119.305,34.520 118.810,34.520 117.600 C 34.520 116.390,34.595 115.895,34.687 116.500 C 34.778 117.105,34.778 118.095,34.687 118.700 M90.496 125.103 C 90.100 125.377,90.014 129.125,90.096 142.426 L 90.200 159.400 92.800 159.532 C 94.230 159.604,97.425 159.541,99.900 159.392 L 104.400 159.121 104.400 157.450 C 104.400 156.530,104.633 155.423,104.918 154.989 C 105.326 154.368,105.402 151.112,105.277 139.700 L 105.117 125.200 101.259 125.198 C 99.136 125.196,95.960 125.096,94.200 124.974 C 92.440 124.852,90.773 124.910,90.496 125.103 M325.200 139.861 L 325.200 154.922 329.462 154.661 C 331.806 154.517,335.226 154.400,337.062 154.400 L 340.400 154.400 340.400 152.400 L 340.400 150.400 338.233 150.400 C 334.992 150.400,334.800 150.253,334.800 147.765 C 334.800 145.388,334.724 145.328,331.400 145.107 L 329.800 145.000 329.552 142.000 C 329.416 140.350,329.281 135.805,329.252 131.900 L 329.200 124.800 327.200 124.800 L 325.200 124.800 325.200 139.861 M19.200 142.600 L 19.200 145.600 22.000 145.600 L 24.800 145.600 24.800 142.600 L 24.800 139.600 22.000 139.600 L 19.200 139.600 19.200 142.600 M370.149 197.300 C 370.121 229.035,369.970 256.215,369.815 257.700 C 369.572 260.017,369.622 260.400,370.166 260.400 C 370.674 260.400,370.800 259.924,370.800 258.000 L 370.800 255.600 373.000 255.600 L 375.200 255.600 375.200 197.600 L 375.200 139.600 372.700 139.600 L 370.200 139.600 370.149 197.300 M19.200 200.000 L 19.200 250.000 22.000 250.000 L 24.800 250.000 24.800 200.000 L 24.800 150.000 22.000 150.000 L 19.200 150.000 19.200 200.000 M340.898 200.100 L 341.000 241.000 342.600 241.000 L 344.200 241.000 344.302 200.100 L 344.404 159.200 342.600 159.200 L 340.796 159.200 340.898 200.100 M75.000 160.000 C 74.864 160.220,73.863 160.400,72.776 160.400 L 70.800 160.400 70.800 162.800 L 70.800 165.200 72.800 165.200 L 74.800 165.200 74.800 200.000 L 74.800 234.800 72.800 234.800 L 70.800 234.800 70.800 237.200 L 70.800 239.600 72.720 239.600 C 73.776 239.600,74.811 239.768,75.020 239.973 C 75.244 240.192,78.310 240.250,82.500 240.112 L 89.600 239.879 89.600 199.999 L 89.600 160.120 85.939 159.860 C 80.538 159.477,75.282 159.544,75.000 160.000 M90.300 240.216 C 89.701 240.850,89.942 274.692,90.548 274.925 C 90.849 275.040,94.287 275.032,98.187 274.906 L 105.279 274.676 105.139 257.958 C 105.045 246.606,104.860 241.100,104.564 240.804 C 104.048 240.288,90.750 239.740,90.300 240.216 M325.200 262.400 L 325.200 279.600 327.140 279.600 L 329.080 279.600 329.340 275.939 C 329.483 273.925,329.600 268.629,329.600 264.171 C 329.600 254.314,329.453 254.800,332.443 254.800 L 334.800 254.800 334.800 252.400 L 334.800 250.000 336.967 250.000 C 340.147 250.000,340.400 249.824,340.400 247.618 L 340.400 245.721 336.500 245.462 C 334.355 245.320,330.935 245.203,328.900 245.202 L 325.200 245.200 325.200 262.400 M19.200 257.481 L 19.200 260.400 22.200 260.400 L 25.200 260.400 25.194 258.100 C 25.186 255.065,25.052 254.928,21.900 254.731 L 19.200 254.562 19.200 257.481 M355.600 274.720 C 355.600 285.636,355.476 289.564,355.120 289.920 C 354.614 290.426,341.878 290.635,340.633 290.157 C 340.071 289.942,340.000 288.227,340.000 274.957 L 340.000 260.000 347.800 260.000 L 355.600 260.000 355.600 274.720 M109.891 275.099 L 105.182 275.226 105.291 282.513 L 105.400 289.800 109.056 290.103 C 111.066 290.269,114.486 290.269,116.656 290.103 L 120.600 289.800 120.719 287.300 L 120.838 284.800 122.819 284.800 L 124.800 284.800 124.800 282.800 L 124.800 280.800 122.843 280.800 C 120.574 280.800,120.400 280.559,120.400 277.410 C 120.400 274.921,120.175 274.761,116.867 274.886 C 115.620 274.933,112.481 275.029,109.891 275.099 M310.218 279.971 C 310.055 280.234,310.051 282.688,310.209 285.425 L 310.496 290.400 312.425 290.400 C 313.485 290.400,314.464 290.220,314.600 290.000 C 314.736 289.780,315.917 289.600,317.224 289.600 L 319.600 289.600 319.600 287.462 C 319.600 284.756,320.327 284.000,322.931 284.000 L 324.800 284.000 324.800 282.000 L 324.800 280.000 320.660 280.000 C 318.384 280.000,315.169 279.886,313.517 279.746 C 311.379 279.565,310.429 279.630,310.218 279.971 M135.300 290.275 L 124.800 290.413 124.800 295.007 L 124.800 299.600 122.800 299.600 L 120.800 299.600 120.800 302.200 L 120.800 304.800 122.800 304.800 L 124.800 304.800 124.806 306.900 C 124.815 310.044,123.802 309.862,140.000 309.619 L 154.600 309.400 154.916 306.600 C 155.233 303.792,155.071 297.005,154.585 292.700 C 154.329 290.424,154.312 290.400,153.023 290.400 C 152.307 290.400,150.389 290.341,148.760 290.268 C 147.132 290.196,141.075 290.199,135.300 290.275 M34.120 292.800 C 34.120 294.010,34.195 294.505,34.287 293.900 C 34.378 293.295,34.378 292.305,34.287 291.700 C 34.195 291.095,34.120 291.590,34.120 292.800 M290.591 295.615 C 290.230 296.198,290.829 304.771,291.249 305.030 C 291.439 305.147,293.575 305.118,295.997 304.965 L 300.400 304.686 300.400 302.543 L 300.400 300.400 302.120 300.400 C 305.059 300.400,305.993 299.716,305.997 297.561 L 306.000 295.722 301.738 295.461 C 295.473 295.077,290.884 295.141,290.591 295.615 M335.200 308.018 L 335.200 310.437 337.900 310.318 L 340.600 310.200 340.720 307.900 L 340.840 305.600 338.020 305.600 L 335.200 305.600 335.200 308.018 M54.869 307.600 C 54.952 308.480,54.869 309.200,54.682 309.200 C 54.495 309.200,54.613 309.470,54.943 309.800 C 55.301 310.158,56.279 310.400,57.371 310.400 L 59.200 310.400 59.200 308.200 L 59.200 306.000 56.958 306.000 L 54.716 306.000 54.869 307.600 M290.882 311.900 L 291.000 314.600 292.600 314.600 L 294.200 314.600 294.318 311.900 L 294.437 309.200 292.600 309.200 L 290.763 309.200 290.882 311.900 M104.591 329.700 C 104.740 332.175,104.802 335.550,104.731 337.200 L 104.600 340.200 97.653 340.310 C 92.868 340.385,90.533 340.277,90.153 339.961 C 89.533 339.446,89.418 335.087,89.860 328.861 L 90.120 325.200 97.220 325.200 L 104.321 325.200 104.591 329.700 M260.020 330.362 C 259.764 330.841,259.609 331.901,259.677 332.717 L 259.800 334.200 262.700 334.188 C 264.295 334.182,268.660 334.137,272.400 334.088 L 279.200 334.000 279.200 332.000 L 279.200 330.000 272.860 330.000 C 269.374 330.000,265.163 329.885,263.504 329.745 C 260.681 329.506,260.457 329.546,260.020 330.362 M316.100 330.287 C 316.705 330.378,317.695 330.378,318.300 330.287 C 318.905 330.195,318.410 330.120,317.200 330.120 C 315.990 330.120,315.495 330.195,316.100 330.287 M322.400 330.400 L 319.800 330.662 322.276 330.731 C 323.638 330.769,324.864 330.620,325.000 330.400 C 325.136 330.180,325.192 330.031,325.124 330.069 C 325.056 330.107,323.830 330.256,322.400 330.400 M85.482 333.300 C 85.387 333.795,85.309 333.390,85.309 332.400 C 85.309 331.410,85.387 331.005,85.482 331.500 C 85.578 331.995,85.578 332.805,85.482 333.300 M240.267 345.467 C 240.120 345.613,240.000 346.584,240.000 347.624 C 240.000 349.705,240.322 350.000,242.600 350.000 C 244.883 350.000,245.200 349.708,245.200 347.600 C 245.200 346.223,245.022 345.617,244.567 345.443 C 243.716 345.116,240.600 345.133,240.267 345.467 M285.200 358.000 L 285.200 360.400 288.000 360.400 L 290.800 360.400 290.800 358.000 L 290.800 355.600 288.000 355.600 L 285.200 355.600 285.200 358.000 M255.517 367.562 C 255.453 371.722,255.535 375.041,255.700 374.939 C 255.865 374.836,256.000 371.533,256.000 367.597 L 256.000 360.442 258.100 360.295 L 260.200 360.148 257.917 360.074 L 255.633 360.000 255.517 367.562 M134.127 367.400 C 134.108 371.360,134.225 375.770,134.386 377.200 L 134.678 379.800 134.739 377.266 L 134.800 374.732 137.300 374.866 L 139.800 375.000 139.678 370.134 L 139.555 365.269 137.177 365.134 L 134.799 365.000 134.719 367.200 C 134.676 368.410,134.532 367.330,134.400 364.800 C 134.177 360.539,134.157 360.730,134.127 367.400 " stroke="none" fill="#917a09" fill-rule="evenodd"></path><path id="path4" d="M140.661 43.900 C 140.520 45.385,140.404 49.615,140.403 53.300 L 140.400 60.000 147.564 60.000 L 154.729 60.000 154.971 57.500 C 155.105 56.125,155.317 53.860,155.443 52.466 L 155.671 49.932 169.936 49.968 C 177.781 49.988,185.415 49.893,186.900 49.756 L 189.600 49.507 189.600 47.553 L 189.600 45.600 172.774 45.600 C 163.191 45.600,155.649 45.440,155.254 45.229 C 154.872 45.025,152.364 44.729,149.680 44.572 L 144.800 44.287 144.800 42.743 L 144.800 41.200 142.858 41.200 L 140.916 41.200 140.661 43.900 M108.100 60.271 L 105.600 60.438 105.600 62.586 C 105.600 65.641,105.815 66.000,107.643 66.000 L 109.200 66.000 109.200 67.800 L 109.200 69.600 107.647 69.600 C 105.585 69.600,105.589 69.581,105.324 80.400 C 105.049 91.594,105.871 90.581,97.333 90.248 C 89.080 89.926,89.866 89.141,89.783 97.784 C 89.747 101.533,89.691 104.726,89.659 104.879 C 89.627 105.033,88.655 105.213,87.500 105.279 L 85.400 105.400 85.279 107.273 C 85.074 110.453,79.200 110.745,79.200 107.575 L 79.200 106.000 77.200 106.000 L 75.200 106.000 75.200 107.567 C 75.200 110.112,74.951 110.400,72.757 110.400 L 70.800 110.400 70.800 124.976 C 70.800 136.205,70.685 139.624,70.300 139.864 C 70.025 140.035,66.687 140.198,62.882 140.226 C 58.954 140.254,55.794 140.446,55.570 140.670 C 55.121 141.119,55.223 258.557,55.674 259.007 C 55.824 259.158,58.974 259.376,62.674 259.493 C 71.847 259.782,70.800 257.783,70.800 275.014 L 70.800 289.600 72.757 289.600 C 74.162 289.600,74.782 289.776,74.954 290.224 C 75.161 290.765,75.845 290.810,80.037 290.565 C 85.464 290.248,85.583 290.298,85.594 292.900 L 85.600 294.400 87.582 294.400 C 89.905 294.400,90.327 295.351,89.842 299.485 C 89.698 300.703,89.702 303.564,89.849 305.842 L 90.117 309.983 97.558 310.091 L 105.000 310.200 105.241 319.000 C 105.554 330.466,105.622 330.800,107.645 330.800 C 109.193 330.800,109.200 330.808,109.200 332.400 C 109.200 333.993,109.193 334.000,107.643 334.000 C 105.813 334.000,105.600 334.358,105.600 337.433 L 105.600 339.600 107.700 339.635 C 119.993 339.839,139.618 339.836,139.951 339.630 C 140.242 339.450,140.285 337.111,140.088 332.184 L 139.800 325.000 132.237 324.891 L 124.675 324.782 124.923 317.610 L 125.172 310.437 122.686 310.319 L 120.200 310.200 120.000 302.600 L 119.800 295.000 112.600 294.800 L 105.400 294.600 105.034 292.200 C 104.833 290.880,104.650 287.730,104.627 285.200 C 104.605 282.670,104.545 279.385,104.494 277.900 L 104.400 275.200 98.100 275.198 C 94.635 275.196,90.295 275.078,88.456 274.935 L 85.113 274.675 85.256 260.199 C 85.430 242.745,85.991 244.315,79.634 244.480 L 75.000 244.600 74.877 242.900 L 74.754 241.200 72.791 241.200 C 71.260 241.200,70.737 241.030,70.414 240.426 C 69.954 239.567,69.814 164.650,70.262 158.900 L 70.519 155.600 72.636 155.600 C 73.800 155.600,74.873 155.405,75.020 155.168 C 75.203 154.871,76.766 154.823,79.990 155.016 C 83.769 155.241,84.761 155.189,85.039 154.748 C 85.229 154.447,85.388 147.630,85.392 139.600 L 85.400 125.000 88.100 124.882 L 90.800 124.763 90.800 122.782 L 90.800 120.800 92.600 120.800 L 94.400 120.800 94.400 122.800 L 94.400 124.800 99.400 124.800 L 104.400 124.800 104.463 122.300 C 104.498 120.925,104.560 116.688,104.600 112.883 C 104.690 104.374,103.975 105.090,112.484 104.994 C 116.288 104.952,119.535 104.891,119.700 104.858 C 119.865 104.826,120.000 101.571,120.000 97.624 C 120.000 89.062,119.208 89.883,127.575 89.773 C 131.219 89.725,135.572 89.667,137.250 89.643 L 140.300 89.600 140.250 75.000 L 140.200 60.401 128.360 60.400 C 121.849 60.400,115.189 60.334,113.560 60.252 C 111.932 60.171,109.475 60.180,108.100 60.271 M216.000 62.400 L 216.000 64.400 217.600 64.400 L 219.200 64.400 219.200 62.400 L 219.200 60.400 217.600 60.400 L 216.000 60.400 216.000 62.400 M215.067 65.067 C 214.920 65.213,214.800 66.203,214.800 67.267 L 214.800 69.200 217.200 69.200 L 219.600 69.200 219.595 67.900 C 219.583 65.186,219.288 64.800,217.220 64.800 C 216.182 64.800,215.213 64.920,215.067 65.067 M160.173 109.560 C 160.085 109.648,158.885 109.828,157.506 109.960 L 155.000 110.200 155.136 115.000 C 155.211 117.640,155.458 120.025,155.685 120.300 C 156.009 120.692,162.495 120.800,185.649 120.800 L 215.200 120.800 215.200 122.800 L 215.200 124.800 217.200 124.800 L 219.200 124.800 219.200 122.820 C 219.200 121.351,219.381 120.738,219.900 120.445 C 220.861 119.903,220.735 110.419,219.760 109.873 C 219.177 109.547,160.494 109.239,160.173 109.560 M123.100 125.096 L 120.800 125.240 120.760 140.120 C 120.739 148.304,120.604 155.990,120.460 157.200 L 120.200 159.400 115.335 159.282 C 112.259 159.208,110.374 159.318,110.211 159.582 C 110.069 159.812,109.018 160.003,107.876 160.006 C 106.734 160.009,105.620 160.144,105.400 160.306 C 104.496 160.971,104.891 239.574,105.800 239.874 C 106.240 240.019,109.660 240.124,113.400 240.108 C 118.126 240.087,120.290 240.219,120.494 240.539 C 120.656 240.793,120.791 248.589,120.794 257.864 L 120.800 274.729 123.300 274.868 C 124.675 274.944,132.325 274.938,140.300 274.854 L 154.800 274.701 154.800 272.351 L 154.800 270.000 152.600 270.000 L 150.400 270.000 150.395 268.300 C 150.384 265.077,150.176 264.800,147.753 264.800 L 145.600 264.800 145.600 262.624 C 145.600 260.115,145.381 259.895,142.600 259.607 L 140.600 259.400 140.347 256.800 C 140.207 255.370,140.070 251.230,140.041 247.600 C 139.974 239.263,140.768 240.041,132.182 239.910 L 125.000 239.800 125.000 200.000 L 125.000 160.200 132.140 159.927 C 136.067 159.776,139.369 159.565,139.477 159.457 C 139.585 159.348,139.774 156.000,139.897 152.016 C 140.020 148.032,140.274 144.678,140.460 144.563 C 140.647 144.447,140.800 143.573,140.800 142.620 L 140.800 140.887 145.300 140.544 L 149.800 140.200 150.148 135.119 L 150.497 130.038 152.548 129.919 L 154.600 129.800 154.718 127.562 L 154.836 125.323 150.918 125.064 C 146.984 124.803,127.402 124.826,123.100 125.096 M172.739 275.098 L 155.678 275.209 155.359 279.904 C 155.184 282.487,155.031 285.770,155.020 287.200 L 155.000 289.800 157.800 290.018 C 159.811 290.175,217.473 290.175,220.109 290.018 C 220.279 290.008,220.369 286.625,220.309 282.500 L 220.200 275.000 205.000 274.993 C 196.640 274.990,182.123 275.036,172.739 275.098 M145.600 312.400 L 145.600 314.400 147.600 314.400 L 149.600 314.400 149.600 312.400 L 149.600 310.400 147.600 310.400 L 145.600 310.400 145.600 312.400 M215.200 332.776 C 215.200 333.863,215.380 334.864,215.600 335.000 C 215.820 335.136,216.000 336.227,216.000 337.424 L 216.000 339.600 217.600 339.600 L 219.200 339.600 219.200 335.200 L 219.200 330.800 217.200 330.800 L 215.200 330.800 215.200 332.776 M140.406 347.300 C 140.414 356.546,139.576 355.705,148.227 355.154 C 152.172 354.903,163.095 354.627,172.500 354.541 L 189.600 354.383 189.600 352.451 L 189.600 350.519 186.300 350.262 C 184.485 350.120,176.861 350.004,169.357 350.002 L 155.714 350.000 155.436 345.900 C 154.989 339.322,155.895 340.000,147.557 340.000 L 140.400 340.000 140.406 347.300 " stroke="none" fill="#f9e462" fill-rule="evenodd"></path></g></svg>